<?xml version="1.0" encoding="utf-8"?>
<!-- Generator: Adobe Illustrator 19.0.0, SVG Export Plug-In . SVG Version: 6.00 Build 0)  -->
<svg version="1.1" id="Layer_1" xmlns="http://www.w3.org/2000/svg" xmlns:xlink="http://www.w3.org/1999/xlink" x="0px" y="0px"
	 viewBox="-5 7 140 140" style="enable-background:new -5 7 140 140;" xml:space="preserve">
<g id="XMLID_2_">
	<circle id="XMLID_5_" style="fill:#FFFFFF;" cx="65" cy="77" r="70"/>
	<path id="XMLID_4_" style="fill:#171C8E;" d="M65,140.6c-35.1,0-63.6-28.5-63.6-63.6S29.9,13.4,65,13.4s63.6,28.5,63.6,63.6
		S100.1,140.6,65,140.6"/>
	<g id="XMLID_1_">
		<path id="XMLID_13_" style="fill:#FFFFFF;" d="M86.5,51.7L79,91.9l4.6,0.3l-4.8,20.5h-8.4l1.8-12.3H46.4l-3.2,12.3H35l3.5-20.5
			l3.8-0.4c2.7-4,5.2-8.2,7.1-12.6c1.9-4.7,3.4-9.6,4.4-14.7l2.5-12.8C56.3,51.7,86.5,51.7,86.5,51.7z M62.7,67.4
			c-0.9,4.7-2.3,9.5-4.1,13.9c-1.5,3.7-3.3,7.1-5.6,10.4h15.6l5.8-31.1H64L62.7,67.4z"/>
	</g>
</g>
</svg>
