<?xml version="1.0" encoding="utf-8"?>
<!-- Generator: Adobe Illustrator 19.0.0, SVG Export Plug-In . SVG Version: 6.00 Build 0)  -->
<svg version="1.1" id="Layer_1" xmlns="http://www.w3.org/2000/svg" xmlns:xlink="http://www.w3.org/1999/xlink" x="0px" y="0px"
	 viewBox="0 0 24 24" style="enable-background:new 0 0 24 24;" xml:space="preserve">
<polyline id="XMLID_3189_" style="fill:none;" points="24,24 0,24 0,0 "/>
<path id="XMLID_3188_" style="fill:none;" d="M0,0h24v24H0V0z"/>
<path id="XMLID_3184_" style="fill:#1976D2;" d="M12,22c1.1,0,2-0.9,2-2h-4C10,21.1,10.9,22,12,22z M18,16v-4.5
	c0-3.1-1.6-5.6-4.5-6.3V4.5C13.5,3.7,12.8,3,12,3s-1.5,0.7-1.5,1.5v0.7C7.6,5.9,6,8.4,6,11.5V16l-2,2v1h16v-1L18,16z M16,17H8v-5.5
	C8,9,9.5,7,12,7s4,2,4,4.5V17z"/>
</svg>
