<?xml version="1.0" encoding="utf-8"?>
<!-- Generator: Adobe Illustrator 19.0.0, SVG Export Plug-In . SVG Version: 6.00 Build 0)  -->
<svg version="1.1" id="Layer_2" xmlns="http://www.w3.org/2000/svg" xmlns:xlink="http://www.w3.org/1999/xlink" x="0px" y="0px"
	 viewBox="0 0 24 24" style="enable-background:new 0 0 24 24;" xml:space="preserve">
<g id="XMLID_1_">
	<rect id="XMLID_2_" style="fill:none;" width="24" height="24"/>
	<polygon id="XMLID_10_" style="fill:#2196F3;" points="16,3 15,2 9,2 8,3 4,3 4,5 20,5 20,3 	"/>
	<path id="XMLID_8_" style="fill:#2196F3;" d="M5,7v13c0,1.1,0.9,2,2,2h10c1.1,0,2-0.9,2-2V7H5z M17,20H7V9h10V20z"/>
</g>
<polygon id="XMLID_3052_" style="fill:#2196F3;" points="12,13.1 9.9,11 8.5,12.4 10.6,14.5 8.5,16.6 9.9,18 12,15.9 14.1,18 
	15.5,16.6 13.4,14.5 15.5,12.4 14.1,11 "/>
</svg>
