<?xml version="1.0" encoding="utf-8"?>
<!-- Generator: Adobe Illustrator 19.0.0, SVG Export Plug-In . SVG Version: 6.00 Build 0)  -->
<svg version="1.1" id="Layer_2" xmlns="http://www.w3.org/2000/svg" xmlns:xlink="http://www.w3.org/1999/xlink" x="0px" y="0px"
	 viewBox="0 0 24 24" style="enable-background:new 0 0 24 24;" xml:space="preserve">
<g id="XMLID_2_">
	<rect id="XMLID_3294_" x="15" y="11" style="fill:#BABABA;" width="2" height="2"/>
	<rect id="XMLID_3293_" x="11" y="11" style="fill:#BABABA;" width="2" height="2"/>
	<rect id="XMLID_3292_" x="7" y="11" style="fill:#BABABA;" width="2" height="2"/>
	<path id="XMLID_3289_" style="fill:#BABABA;" d="M19,4h-1V2h-2v2H8V2H6v2H5C3.9,4,3,4.9,3,6l0,14c0,1.1,0.9,2,2,2h14
		c1.1,0,2-0.9,2-2V6C21,4.9,20.1,4,19,4z M19,20H5V9h14V20z"/>
	<path id="XMLID_3288_" style="fill:none;" d="M0,0h24v24H0V0z"/>
</g>
</svg>
