<?xml version="1.0" encoding="utf-8"?>
<!-- Generator: Adobe Illustrator 19.0.0, SVG Export Plug-In . SVG Version: 6.00 Build 0)  -->
<svg version="1.1" id="Layer_2" xmlns="http://www.w3.org/2000/svg" xmlns:xlink="http://www.w3.org/1999/xlink" x="0px" y="0px"
	 viewBox="0 0 24 24" style="enable-background:new 0 0 24 24;" xml:space="preserve">
<path id="XMLID_4_" style="fill:#1976D2;" d="M18,22H6c-2.2,0-4-1.8-4-4V6c0-2.2,1.8-4,4-4h12c2.2,0,4,1.8,4,4v12
	C22,20.2,20.2,22,18,22z"/>
<path id="XMLID_5_" style="fill:#FFFFFF;" d="M6,4C4.9,4,4,4.9,4,6v12c0,1.1,0.9,2,2,2h12c1.1,0,2-0.9,2-2V6c0-1.1-0.9-2-2-2H6z"/>
<rect id="XMLID_1_" style="fill:none;" width="24" height="24"/>
<rect id="XMLID_3_" style="fill:none;" width="24" height="24"/>
</svg>
