<?xml version="1.0" encoding="utf-8"?>
<!-- Generator: Adobe Illustrator 19.0.0, SVG Export Plug-In . SVG Version: 6.00 Build 0)  -->
<svg version="1.1" id="Layer_2" xmlns="http://www.w3.org/2000/svg" xmlns:xlink="http://www.w3.org/1999/xlink" x="0px" y="0px"
	 viewBox="0 0 24 24" style="enable-background:new 0 0 24 24;" xml:space="preserve">
<rect id="XMLID_1_" style="fill:none;" width="24" height="24"/>
<path id="XMLID_22_" style="fill:#BABABA;" d="M16.2,3c-1.7,0-2.9,0.4-4.2,1.7C10.8,3.4,9.6,3,7.8,3C4.6,3.1,2.1,5.6,2,8.8
	c0,2,0.5,3.5,1.7,5c2.4,3,5.1,5.1,8.3,7.2c3.3-2.1,6-4.2,8.3-7.2c1.2-1.5,1.7-3,1.7-5C21.9,5.6,19.4,3.1,16.2,3z M18.8,12.6
	c-1.8,2.3-3.8,4.1-6.8,6c-3-2-5-3.8-6.8-6C4.3,11.4,4,10.4,4,8.9C4.1,6.8,5.8,5.1,7.9,5L8,5c1.1,0,1.8,0.3,2.5,1.1L12,7.5l1.4-1.4
	C14.2,5.3,14.9,5,16,5l0.2,0c2.1,0.1,3.8,1.8,3.9,3.9C20,10.4,19.7,11.4,18.8,12.6z"/>
<rect id="XMLID_2_" style="fill:none;" width="24" height="24"/>
</svg>
