<?xml version="1.0" encoding="utf-8"?>
<!-- Generator: Adobe Illustrator 19.0.0, SVG Export Plug-In . SVG Version: 6.00 Build 0)  -->
<svg version="1.1" id="Layer_1" xmlns="http://www.w3.org/2000/svg" xmlns:xlink="http://www.w3.org/1999/xlink" x="0px" y="0px"
	 viewBox="0 0 24 24" style="enable-background:new 0 0 24 24;" xml:space="preserve">
<path id="XMLID_29_" style="fill:#2196F3;" d="M10,2L2,2l0,8l8,0L10,2z M4,8l0-4h4l0,4H4z"/>
<path id="XMLID_26_" style="fill:#2196F3;" d="M22,2l-8,0l0,8l8,0L22,2z M16,8V4h4l0,4H16z"/>
<path id="XMLID_23_" style="fill:#2196F3;" d="M22,14l-8,0l0,8l8,0L22,14z M16,20v-4h4l0,4H16z"/>
<path id="XMLID_20_" style="fill:#2196F3;" d="M10,14l-8,0l0,8l8,0L10,14z M4,20l0-4h4l0,4H4z"/>
<rect id="XMLID_19_" style="fill:none;" width="24" height="24"/>
</svg>
