<?xml version="1.0" encoding="utf-8"?>
<!-- Generator: Adobe Illustrator 19.0.0, SVG Export Plug-In . SVG Version: 6.00 Build 0)  -->
<svg version="1.1" id="Layer_3" xmlns="http://www.w3.org/2000/svg" xmlns:xlink="http://www.w3.org/1999/xlink" x="0px" y="0px"
	 viewBox="0 0 24 24" style="enable-background:new 0 0 24 24;" xml:space="preserve">
<g id="XMLID_1_">
	<path id="XMLID_2_" style="fill:#505050;" d="M12,14c1.7,0,3-1.3,3-3l0-6c0-1.7-1.3-3-3-3S9,3.3,9,5v6C9,12.7,10.3,14,12,14z"/>
	<path id="XMLID_6_" style="fill:#505050;" d="M19,11h-2c0,2.8-2.2,5-5,5s-5-2.2-5-5H5c0,3.5,2.6,6.4,6,6.9V22h2v-4.1
		C16.4,17.4,19,14.5,19,11z"/>
</g>
<rect id="XMLID_4_" style="fill:none;" width="24" height="24"/>
</svg>
