<?xml version="1.0" encoding="utf-8"?>
<!-- Generator: Adobe Illustrator 19.0.0, SVG Export Plug-In . SVG Version: 6.00 Build 0)  -->
<svg version="1.1" id="Layer_2" xmlns="http://www.w3.org/2000/svg" xmlns:xlink="http://www.w3.org/1999/xlink" x="0px" y="0px"
	 viewBox="0 0 24 24" style="enable-background:new 0 0 24 24;" xml:space="preserve">
<rect id="XMLID_1_" style="fill:none;" width="24" height="24"/>
<path id="XMLID_2_" style="fill:#2196F3;" d="M12.2,16.8"/>
<path id="XMLID_10_" style="fill:#FFFFFF;" d="M18.6,5.5L15,1.9l-1.4,1.4L14.3,4l-4.2,4.2c-0.8,0.8-2,0.8-2.8,0L5.8,9.7l3.5,3.5
	l-5.7,5.7L3,21l2.1-0.7l5.7-5.7l3.5,3.5l1.4-1.4c-0.8-0.8-0.8-2,0-2.8L20,9.7l0.7,0.7L22.1,9L18.6,5.5z M14.3,12.5
	c-0.5,0.5-0.9,1.1-1,1.8l-3.6-3.6c0.7-0.2,1.3-0.5,1.8-1l4.2-4.2l2.8,2.8L14.3,12.5z"/>
<rect id="XMLID_3_" style="fill:none;" width="24" height="24"/>
</svg>
