<?xml version="1.0" encoding="utf-8"?>
<!-- Generator: Adobe Illustrator 19.0.0, SVG Export Plug-In . SVG Version: 6.00 Build 0)  -->
<svg version="1.1" id="Layer_2" xmlns="http://www.w3.org/2000/svg" xmlns:xlink="http://www.w3.org/1999/xlink" x="0px" y="0px"
	 viewBox="0 0 24 24" style="enable-background:new 0 0 24 24;" xml:space="preserve">
<path id="XMLID_22_" style="fill:#2196F3;" d="M20,8c0-4.4-3.6-8-8-8v0C7.6,0,4,3.6,4,8c0,1.5,0.4,2.8,1.1,4l0,0L12,24v0l6.9-12l0,0
	C19.6,10.8,20,9.5,20,8z M17.2,11l-1,1.8l0,0L12,20l-4.2-7.2l0,0l-1-1.8C6.3,10.1,6,9,6,8c0-3.3,2.7-6,6-6s6,2.7,6,6
	C18,9,17.7,10.1,17.2,11z"/>
<circle id="XMLID_15_" style="fill:#2196F3;" cx="12" cy="8" r="2"/>
<rect id="XMLID_2_" style="fill:none;" width="24" height="24"/>
</svg>
