<?xml version="1.0" encoding="utf-8"?>
<!-- Generator: Adobe Illustrator 19.0.0, SVG Export Plug-In . SVG Version: 6.00 Build 0)  -->
<svg version="1.1" id="Layer_2" xmlns="http://www.w3.org/2000/svg" xmlns:xlink="http://www.w3.org/1999/xlink" x="0px" y="0px"
	 viewBox="0 0 24 24" style="enable-background:new 0 0 24 24;" xml:space="preserve">
<rect id="XMLID_1_" style="fill:none;" width="24" height="24"/>
<path id="XMLID_5_" style="fill:#2196F3;" d="M4,16l4-4H5c0-3.9,3.1-7,7-7s7,3.1,7,7s-3.1,7-7,7c-1.9,0-3.7-0.8-4.9-2.1l-1.4,1.4
	C7.3,20,9.5,21,12,21c5,0,9-4,9-9s-4-9-9-9s-9,4-9,9H0L4,16z M11,8v5l4.3,2.5l0.7-1.2l-3.5-2.1V8H11z"/>
</svg>
