<?xml version="1.0" encoding="utf-8"?>
<!-- Generator: Adobe Illustrator 19.0.0, SVG Export Plug-In . SVG Version: 6.00 Build 0)  -->
<svg version="1.1" id="Layer_1" xmlns="http://www.w3.org/2000/svg" xmlns:xlink="http://www.w3.org/1999/xlink" x="0px" y="0px"
	 viewBox="0 0 24 24" style="enable-background:new 0 0 24 24;" xml:space="preserve">
<rect id="XMLID_3130_" style="fill:none;" width="24" height="24"/>
<path id="XMLID_3127_" style="fill:#FFFFFF;" d="M18.3,16.9c1.1-1.4,1.7-3.1,1.7-4.9c0-4.4-3.6-8-8-8s-8,3.6-8,8s3.6,8,8,8
	c1.8,0,3.5-0.6,4.9-1.7l2.8,2.8c0.5-0.4,1-0.9,1.4-1.4L18.3,16.9z M12,18c-3.3,0-6-2.7-6-6c0-3.3,2.7-6,6-6s6,2.7,6,6
	C18,15.3,15.3,18,12,18z"/>
</svg>
