<?xml version="1.0" encoding="utf-8"?>
<!-- Generator: Adobe Illustrator 19.0.0, SVG Export Plug-In . SVG Version: 6.00 Build 0)  -->
<svg version="1.1" id="Layer_1" xmlns="http://www.w3.org/2000/svg" xmlns:xlink="http://www.w3.org/1999/xlink" x="0px" y="0px"
	 viewBox="0 0 24 24" style="enable-background:new 0 0 24 24;" xml:space="preserve">
<path id="XMLID_3083_" style="fill:none;" d="M0,0h24v24H0V0z"/>
<path id="XMLID_3082_" style="fill:none;" d="M0,0h24v24H0V0z"/>
<path id="XMLID_3079_" style="fill:#2196F3;" d="M19.4,13c0-0.3,0.1-0.6,0.1-1s0-0.7-0.1-1l2.1-1.6c0.2-0.1,0.2-0.4,0.1-0.6l-2-3.5
	C19.5,5,19.3,5,19,5l-2.5,1c-0.5-0.4-1.1-0.7-1.7-1l-0.4-2.7C14.5,2.2,14.2,2,14,2h-4C9.8,2,9.5,2.2,9.5,2.4L9.1,5.1
	C8.5,5.3,8,5.7,7.4,6L5,5C4.7,5,4.5,5,4.3,5.3l-2,3.5C2.2,8.9,2.3,9.2,2.5,9.4L4.6,11c0,0.3-0.1,0.6-0.1,1c0,0.3,0,0.7,0.1,1
	l-2.1,1.7c-0.2,0.1-0.2,0.4-0.1,0.6l2,3.5C4.5,18.9,4.7,19,5,18.9l2.5-1c0.5,0.4,1.1,0.7,1.7,1l0.4,2.6c0,0.2,0.2,0.4,0.5,0.4h4
	c0.2,0,0.5-0.2,0.5-0.4l0.4-2.6c0.6-0.2,1.2-0.6,1.7-1l2.5,1c0.2,0.1,0.5,0,0.6-0.2l2-3.5c0.1-0.2,0.1-0.5-0.1-0.6L19.4,13z
	 M17.5,12c0,0.6-0.1,1.2-0.3,1.7l2.1,1.7l-0.7,1.2l-2.5-1c-0.8,0.9-1.8,1.5-3,1.7L12.7,20h-1.4l-0.4-2.6c-1.2-0.2-2.2-0.9-3-1.7
	l-2.5,1l-0.7-1.2l2.1-1.7c-0.2-0.5-0.3-1.1-0.3-1.7c0-0.6,0.1-1.2,0.3-1.7L4.7,8.6l0.7-1.2l2.5,1c0.8-0.9,1.8-1.5,3-1.7L11.3,4h1.4
	l0.4,2.6c1.2,0.2,2.2,0.9,3,1.7l2.5-1l0.7,1.2l-2.1,1.7C17.4,10.8,17.5,11.4,17.5,12z"/>
<circle id="XMLID_3078_" style="fill:#2196F3;" cx="12" cy="12" r="2.5"/>
</svg>
