<?xml version="1.0" encoding="utf-8"?>
<!-- Generator: Adobe Illustrator 19.0.0, SVG Export Plug-In . SVG Version: 6.00 Build 0)  -->
<svg version="1.1" id="Layer_2" xmlns="http://www.w3.org/2000/svg" xmlns:xlink="http://www.w3.org/1999/xlink" x="0px" y="0px"
	 viewBox="0 0 24 24" style="enable-background:new 0 0 24 24;" xml:space="preserve">
<rect id="XMLID_1_" style="fill:none;" width="24" height="24"/>
<path id="XMLID_3_" style="fill:#2196F3;" d="M0,10.6"/>
<path id="XMLID_11_" style="fill:#1976D2;" d="M24,11.6L24,11.6C20.8,8.8,16.6,7,12,7S3.2,8.8,0,11.6l0,0l1.3,1.5
	c1.8-1.6,4-2.8,6.3-3.5C7.2,10.3,7,11.1,7,12c0,2.8,2.2,5,5,5s5-2.2,5-5c0-0.9-0.2-1.7-0.6-2.4c2.3,0.7,4.5,1.8,6.3,3.5L24,11.6z
	 M12,15c-1.7,0-3-1.3-3-3s1.3-3,3-3s3,1.3,3,3S13.7,15,12,15z"/>
</svg>
