<?xml version="1.0" encoding="utf-8"?>
<!-- Generator: Adobe Illustrator 19.0.0, SVG Export Plug-In . SVG Version: 6.00 Build 0)  -->
<svg version="1.1" id="Layer_1" xmlns="http://www.w3.org/2000/svg" xmlns:xlink="http://www.w3.org/1999/xlink" x="0px" y="0px"
	 viewBox="0 0 24 24" style="enable-background:new 0 0 24 24;" xml:space="preserve">
<rect id="XMLID_378_" style="fill:none;" width="24" height="24"/>
<path id="XMLID_34_" style="fill:#BABABA;" d="M20,14v-3c0-0.6-0.4-1-1-1h-3c-0.6,0-1,0.4-1,1v1H8V7h2c0.6,0,1-0.4,1-1V2
	c0-0.6-0.4-1-1-1H5C4.4,1,4,1.4,4,2v4c0,0.6,0.4,1,1,1h2v12c0,1.1,0.9,2,2,2h6v1c0,0.6,0.4,1,1,1h3c0.6,0,1-0.4,1-1v-3
	c0-0.6-0.4-1-1-1h-3c-0.6,0-1,0.4-1,1v1H9c-0.6,0-1-0.4-1-1v-6h7v1c0,0.6,0.4,1,1,1h3C19.6,15,20,14.6,20,14z"/>
</svg>
