<?xml version="1.0" encoding="utf-8"?>
<!-- Generator: Adobe Illustrator 19.0.0, SVG Export Plug-In . SVG Version: 6.00 Build 0)  -->
<svg version="1.1" id="Layer_1" xmlns="http://www.w3.org/2000/svg" xmlns:xlink="http://www.w3.org/1999/xlink" x="0px" y="0px"
	 viewBox="0 0 24 24" style="enable-background:new 0 0 24 24;" xml:space="preserve">
<rect id="XMLID_19_" style="fill:none;" width="24" height="24"/>
<path id="XMLID_35_" style="fill:#505050;" d="M20,7h-4V5c0-1.1-0.9-2-2-2h-4C8.9,3,8,3.9,8,5v2H4C2.9,7,2,7.9,2,9l0,10
	c0,1.1,0.9,2,2,2h16c1.1,0,2-0.9,2-2V9C22,7.9,21.1,7,20,7z M10,5h4v2h-4V5z M20,19H4V9h16V19z"/>
</svg>
